<svg width="32" height="32" viewBox="0 0 32 32" fill="none" xmlns="http://www.w3.org/2000/svg">
  <rect width="32" height="32" rx="6" fill="#000000"/>
  <!-- Wolf face silhouette -->
  <path d="M16 4L8 10L6 8L4 14L6 16L4 22L8 28H12L14 26L16 28L18 26L20 28H24L28 22L26 16L28 14L26 8L24 10L16 4Z" fill="#DC2626"/>
  <!-- Eyes -->
  <ellipse cx="11" cy="16" rx="2" ry="2.5" fill="#FBBF24"/>
  <ellipse cx="21" cy="16" rx="2" ry="2.5" fill="#FBBF24"/>
  <circle cx="11" cy="16" r="1" fill="#000000"/>
  <circle cx="21" cy="16" r="1" fill="#000000"/>
  <!-- Nose -->
  <ellipse cx="16" cy="21" rx="2" ry="1.5" fill="#000000"/>
  <!-- Mouth/fangs hint -->
  <path d="M13 24L16 22L19 24" stroke="#000000" stroke-width="1" fill="none"/>
</svg>
